<svg xmlns="http://www.w3.org/2000/svg" width="30.892" height="31.2" viewBox="0 0 30.892 31.2"><defs><linearGradient id="a" x1=".5" x2=".5" y2="1" gradientUnits="objectBoundingBox"><stop offset="0" stop-color="#ff898b" stop-opacity=".251"/><stop offset="1" stop-color="#ff898b"/></linearGradient></defs><ellipse data-name="Ellipse 1" cx="15.446" cy="15.446" rx="15.446" ry="15.446" transform="translate(0 .309)" fill="none"/><path data-name="Path 3214" d="M148.148 124.816v-9.479a2.736 2.736 0 1 0-2.812-4.546l-6.36-3.181a2.7 2.7 0 0 0 .034-.332 2.741 2.741 0 1 0-5.483 0 2.7 2.7 0 0 0 .034.332l-6.36 3.181a2.736 2.736 0 1 0-2.812 4.546v9.479a2.736 2.736 0 1 0 2.812 4.546l6.36 3.181a2.713 2.713 0 0 0-.034.332 2.741 2.741 0 1 0 5.483 0 2.686 2.686 0 0 0-.034-.332l6.36-3.181a2.736 2.736 0 1 0 2.812-4.546zm-21.211.385a2.718 2.718 0 0 0-.721-.385v-9.479a2.719 2.719 0 0 0 .721-.385l5.1 3.4a4.5 4.5 0 0 0 0 3.441zm8.418 5.1a2.739 2.739 0 0 0-.984.6l-6.36-3.181a2.13 2.13 0 0 0-.058-1l5.1-3.4a4.562 4.562 0 0 0 2.3 1.236v5.744zm0-14.7a4.561 4.561 0 0 0-2.3 1.236l-5.1-3.4a2.715 2.715 0 0 0 .092-.668 2.685 2.685 0 0 0-.034-.332l6.36-3.181a2.737 2.737 0 0 0 .984.6v5.744zm1.828-5.746a2.737 2.737 0 0 0 .984-.6l6.36 3.181a2.131 2.131 0 0 0 .058 1l-5.1 3.4a4.561 4.561 0 0 0-2.3-1.236v-5.746zm7.344 17.871l-6.36 3.181a2.737 2.737 0 0 0-.984-.6v-5.746a4.562 4.562 0 0 0 2.3-1.236l5.1 3.4a2.715 2.715 0 0 0-.092.668 2.664 2.664 0 0 0 .035.33zm1.794-2.907a2.718 2.718 0 0 0-.721.385l-5.1-3.4a4.5 4.5 0 0 0 0-3.441l5.1-3.4a2.719 2.719 0 0 0 .721.385z" transform="translate(-120.624 -104.535)" fill="url(#a)"/></svg>