<svg xmlns="http://www.w3.org/2000/svg" width="14.092" height="13.862" viewBox="0 0 14.092 13.862"><path d="M2.301 11.28h.072l1.92-.177a1.158 1.158 0 0 0 .708-.334L12.25 3.52a1.788 1.788 0 0 0 0-2.543l-.465-.465a1.845 1.845 0 0 0-2.55 0l-.924.924-6.319 6.318a1.116 1.116 0 0 0-.328.708l-.177 1.92a.842.842 0 0 0 .236.655.809.809 0 0 0 .577.243zM10.513.963a.793.793 0 0 1 .577.243l.465.465a.809.809 0 0 1 .243.577.8.8 0 0 1-.243.577l-.577.575-1.619-1.617.577-.577a.82.82 0 0 1 .577-.243zm-7.872 7.59a.139.139 0 0 1 .046-.1l5.971-5.976L10.277 4.1l-5.971 5.967a.274.274 0 0 1-.1.046l-1.724.157.157-1.724zm11.45 4.817a.5.5 0 0 1-.492.492H.492a.492.492 0 1 1 0-.983H13.6a.5.5 0 0 1 .492.492z" fill="#ff898b"/></svg>