<svg xmlns="http://www.w3.org/2000/svg" width="18" height="18" viewBox="0 0 18 18"><g data-name="5402431_done_success_tick_valid_approve_icon" fill="#2785f0"><path d="M9 17.5C4.313 17.5.5 13.687.5 9 .5 4.313 4.313.5 9 .5c4.687 0 8.5 3.813 8.5 8.5 0 4.687-3.813 8.5-8.5 8.5zM6.6 8.697a.304.304 0 0 0-.214.518l1.6 1.6a.302.302 0 0 0 .427.001l4.001-4.002a.304.304 0 0 0-.428-.428l-3.432 3.44-.355.355-.354-.357-1.032-1.04a.3.3 0 0 0-.213-.087z"/><path d="M9 1a8 8 0 1 0 0 16A8 8 0 0 0 9 1m-.8 10.405a.8.8 0 0 1-.568-.237l-1.6-1.6a.803.803 0 1 1 1.136-1.136L8.2 9.472l3.432-3.44a.803.803 0 1 1 1.136 1.136l-4 4a.8.8 0 0 1-.568.237M9 0c4.963 0 9 4.037 9 9s-4.037 9-9 9-9-4.037-9-9 4.037-9 9-9z" fill="#fff"/></g></svg>