<svg xmlns="http://www.w3.org/2000/svg" width="19.784" height="23.995" viewBox="0 0 19.784 23.995"><defs><linearGradient id="a" x1=".273" x2=".284" y2="1" gradientUnits="objectBoundingBox"><stop offset="0" stop-color="#ff898b" stop-opacity=".251"/><stop offset="1" stop-color="#ff898b"/></linearGradient></defs><path data-name="Path 3217" d="M138.566 121.178v.759a2.826 2.826 0 0 0 5.652 0v-.759a5.672 5.672 0 0 0 2.826-4.886v-2.823h-11.305v2.823a5.672 5.672 0 0 0 2.827 4.886zm8.479-14.061a2.121 2.121 0 0 0-2.12-2.117h-7.066a2.121 2.121 0 0 0-2.12 2.117v4.94h11.305v-4.94zm-4.239 2.823h-.706v.706a.707.707 0 0 1-1.413 0v-.706h-.707a.706.706 0 1 1 0-1.411h.707v-.706a.707.707 0 0 1 1.413 0v.706h.707a.706.706 0 1 1 0 1.411zm-1.413 16.232a4.239 4.239 0 0 1-4.162-3.471l-.077.031v6.263h8.479v-6.263l-.077-.031a4.239 4.239 0 0 1-4.164 3.471zm6.82-2.405l-1.167-.468v5.7h3.533a.706.706 0 0 0 .707-.706 4.858 4.858 0 0 0-3.074-4.526zm-16.713 4.522a.706.706 0 0 0 .707.706h3.533v-5.7l-1.168.468a4.858 4.858 0 0 0-3.072 4.526z" transform="translate(-131.5 -105)" fill="url(#a)"/></svg>