<svg xmlns="http://www.w3.org/2000/svg" width="24.593" height="23.147" viewBox="0 0 24.593 23.147"><defs><linearGradient id="a" x1=".5" x2=".5" y2="1" gradientUnits="objectBoundingBox"><stop offset="0" stop-color="#ff898b" stop-opacity=".251"/><stop offset="1" stop-color="#ff898b"/></linearGradient></defs><path data-name="Path 3216" d="M122.36 114h-10.127a.723.723 0 0 0-.723.723v22.423h3.617v-5.063a.723.723 0 0 1 .723-.723h2.893a.723.723 0 0 1 .723.723v5.063h3.617v-22.423a.723.723 0 0 0-.723-.723zm-6.51 15.913h-1.45a.723.723 0 1 1 0-1.447h1.447a.723.723 0 1 1 0 1.447zm0-2.893h-1.45a.723.723 0 1 1 0-1.447h1.447a.723.723 0 1 1 0 1.447zm0-2.893h-1.45a.723.723 0 1 1 0-1.447h1.447a.723.723 0 1 1 0 1.447zm1.447-2.893a.723.723 0 0 1-.723-.723v-.723h-.723a.723.723 0 0 1 0-1.447h.723v-.723a.723.723 0 1 1 1.447 0v.723h.723a.723.723 0 0 1 0 1.447h-.723v.723a.723.723 0 0 1-.721.722zm2.893 8.68h-1.447a.723.723 0 0 1 0-1.447h1.447a.723.723 0 0 1 0 1.447zm0-2.893h-1.447a.723.723 0 1 1 0-1.447h1.447a.723.723 0 1 1 0 1.447zm0-2.893h-1.447a.723.723 0 1 1 0-1.447h1.447a.723.723 0 1 1 0 1.447zm-3.617 13.02h1.447v-4.34h-1.447zm11.573-10.127h1.447v-2.17a.723.723 0 0 0-.723-.723h-1.447v-2.17a.723.723 0 0 0-.723-.723h-2.17v15.913h4.34a.723.723 0 0 0 .723-.723v-2.17h-1.447a.723.723 0 0 1 0-1.447h1.447v-1.448h-1.447a.723.723 0 1 1 0-1.447h1.447v-1.447h-1.447a.723.723 0 0 1 0-1.447zm-20.977-5.063v2.17h-1.447a.723.723 0 0 0-.723.723v2.17h1.447a.723.723 0 0 1 0 1.447H105v1.447h1.447a.723.723 0 1 1 0 1.447H105v1.447h1.447a.723.723 0 0 1 0 1.447H105v2.17a.723.723 0 0 0 .723.723h4.34v-15.916h-2.17a.723.723 0 0 0-.723.724z" transform="translate(-105 -114)" fill="url(#a)"/></svg>