<svg xmlns="http://www.w3.org/2000/svg" width="23.46" height="23.464" viewBox="0 0 23.46 23.464"><defs><linearGradient id="a" x1=".5" x2=".5" y2="1" gradientUnits="objectBoundingBox"><stop offset="0" stop-color="#ff898b" stop-opacity=".251"/><stop offset="1" stop-color="#ff898b"/></linearGradient></defs><path data-name="Path 3215" d="M120.185 105a8.269 8.269 0 0 0-6.314 13.618l-1.549 1.549-.488-.488a.689.689 0 0 0-.975 0l-5.655 5.656a.69.69 0 0 0 0 .975l1.951 1.951a.689.689 0 0 0 .975 0l5.655-5.656a.69.69 0 0 0 0-.975l-.488-.488 1.549-1.549A8.274 8.274 0 1 0 120.185 105zm0 13.8a5.519 5.519 0 1 1 5.518-5.519 5.524 5.524 0 0 1-5.518 5.519zm0-9.658a4.139 4.139 0 1 0 4.138 4.139 4.143 4.143 0 0 0-4.138-4.142z" transform="translate(-105.002 -105)" fill="url(#a)"/></svg>