<svg xmlns="http://www.w3.org/2000/svg" width="17.055" height="10.659" viewBox="0 0 17.055 10.659"><path d="M8.527 10.659c-5.579 0-8.345-4.864-8.46-5.071a.533.533 0 0 1 0-.518C.182 4.864 2.948 0 8.527 0s8.345 4.864 8.46 5.071a.533.533 0 0 1 0 .518c-.114.211-2.88 5.07-8.46 5.07zM1.16 5.329c.634.961 3.123 4.264 7.367 4.264s6.736-3.3 7.367-4.263c-.634-.961-3.123-4.264-7.367-4.264S1.792 4.367 1.16 5.329zm7.367 3.2a3.2 3.2 0 1 1 3.2-3.2 3.2 3.2 0 0 1-3.2 3.198zm0-5.33a2.132 2.132 0 1 0 2.132 2.132A2.134 2.134 0 0 0 8.527 3.2z" fill="#734895"/></svg>