<svg xmlns="http://www.w3.org/2000/svg" width="14.092" height="13.862" viewBox="0 0 14.092 13.862">
  <path id="edit-text" d="M3.551,12.88h.072l1.92-.177a1.158,1.158,0,0,0,.708-.334L13.5,5.12a1.788,1.788,0,0,0,0-2.543l-.465-.465a1.845,1.845,0,0,0-2.55,0l-.924.924h0L3.242,9.354a1.116,1.116,0,0,0-.328.708l-.177,1.92a.842.842,0,0,0,.236.655.809.809,0,0,0,.577.243ZM11.763,2.563a.793.793,0,0,1,.577.243l.465.465a.809.809,0,0,1,.243.577.8.8,0,0,1-.243.577L12.228,5,10.609,3.383l.577-.577a.82.82,0,0,1,.577-.243Zm-7.872,7.59a.139.139,0,0,1,.046-.1L9.908,4.077,11.527,5.7,5.556,11.667a.274.274,0,0,1-.1.046l-1.724.157.157-1.724Zm11.45,4.817a.5.5,0,0,1-.492.492H1.742a.492.492,0,1,1,0-.983H14.85A.5.5,0,0,1,15.342,14.971Z" transform="translate(-1.25 -1.6)" fill="#ff898b"/>
</svg>
